HIERARCHY
ROOT joint_Root
{
	OFFSET 0.0 0.0 0.0
	CHANNELS 6 Xposition Yposition Zposition Zrotation Xrotation Yrotation 
	JOINT Hips
	{
		OFFSET -0.726466 93.3139 -2.00062
		CHANNELS 6 Xposition Yposition Zposition Zrotation Xrotation Yrotation 
		JOINT Spine
		{
			OFFSET 15.7357 0.0 0.0
			CHANNELS 6 Xposition Yposition Zposition Zrotation Xrotation Yrotation 
			JOINT Chest
			{
				OFFSET 8.98455 -0.406207 0.0
				CHANNELS 6 Xposition Yposition Zposition Zrotation Xrotation Yrotation 
				JOINT Neck
				{
					OFFSET 16.3773 0.0 0.0
					CHANNELS 6 Xposition Yposition Zposition Zrotation Xrotation Yrotation 
					JOINT Head
					{
						OFFSET 6.45672 0.0 0.0
						CHANNELS 6 Xposition Yposition Zposition Zrotation Xrotation Yrotation 
						End Site
						{
							OFFSET 0.0 0.0 0.0
						}
					}
				}
				JOINT Shoulder_L
				{
					OFFSET 12.9942 -0.242716 4.98039
					CHANNELS 6 Xposition Yposition Zposition Zrotation Xrotation Yrotation 
					JOINT UpperArm_L
					{
						OFFSET 5.34809 0.0 0.0
						CHANNELS 6 Xposition Yposition Zposition Zrotation Xrotation Yrotation 
						JOINT LowerArm_L
						{
							OFFSET 24.3286 1.87007e-05 0.0
							CHANNELS 6 Xposition Yposition Zposition Zrotation Xrotation Yrotation 
							JOINT Hand_L
							{
								OFFSET 22.2916 0.0 0.0
								CHANNELS 6 Xposition Yposition Zposition Zrotation Xrotation Yrotation 
								End Site
								{
									OFFSET 0.0 0.0 0.0
								}
							}
						}
					}
				}
				JOINT Shoulder_R
				{
					OFFSET 12.9945 -0.242716 -4.98039
					CHANNELS 6 Xposition Yposition Zposition Zrotation Xrotation Yrotation 
					JOINT UpperArm_R
					{
						OFFSET -5.34813 0.0 0.0
						CHANNELS 6 Xposition Yposition Zposition Zrotation Xrotation Yrotation 
						JOINT LowerArm_R
						{
							OFFSET -24.3289 0.000322201 0.0
							CHANNELS 6 Xposition Yposition Zposition Zrotation Xrotation Yrotation 
							JOINT Hand_R
							{
								OFFSET -22.2915 -0.000108084 0.0
								CHANNELS 6 Xposition Yposition Zposition Zrotation Xrotation Yrotation 
								End Site
								{
									OFFSET 0.0 0.0 0.0
								}
							}
						}
					}
				}
			}
		}
		JOINT UpperLeg_L
		{
			OFFSET -2.19248 -6.46944 0.0
			CHANNELS 6 Xposition Yposition Zposition Zrotation Xrotation Yrotation 
			JOINT LowerLeg_L
			{
				OFFSET 39.0811 0.0 -1.23785e-05
				CHANNELS 6 Xposition Yposition Zposition Zrotation Xrotation Yrotation 
				JOINT Foot_L
				{
					OFFSET 40.9854 0.0 -1.26872e-05
					CHANNELS 6 Xposition Yposition Zposition Zrotation Xrotation Yrotation 
					JOINT Toes_L
					{
						OFFSET 11.7543 0.0 0.0
						CHANNELS 6 Xposition Yposition Zposition Zrotation Xrotation Yrotation 
						End Site
						{
							OFFSET 0.0 0.0 0.0
						}
					}
				}
			}
		}
		JOINT UpperLeg_R
		{
			OFFSET -2.19251 6.46944 0.0
			CHANNELS 6 Xposition Yposition Zposition Zrotation Xrotation Yrotation 
			JOINT LowerLeg_R
			{
				OFFSET -39.0811 -0.00228153 -0.0401928
				CHANNELS 6 Xposition Yposition Zposition Zrotation Xrotation Yrotation 
				JOINT Foot_R
				{
					OFFSET -40.9854 0.0 0.0
					CHANNELS 6 Xposition Yposition Zposition Zrotation Xrotation Yrotation 
					JOINT Toes_R
					{
						OFFSET -11.7543 0.0 0.0
						CHANNELS 6 Xposition Yposition Zposition Zrotation Xrotation Yrotation 
						End Site
						{
							OFFSET 0.0 0.0 0.0
						}
					}
				}
			}
		}
	}
}
MOTION
Frames:	5
Frame Time:	0.0333333
0.000000 0.000000 0.000000 0.000000 0.000000 -0.000000 134.573000 85.997800 -175.961000 83.247700 8.507920 0.445845 15.735700 0.000005 -0.000001 57.966200 80.239500 -54.038500 8.984550 -0.406207 -0.000000 9.259360 -10.248800 8.697890 16.377300 -0.000001 -0.000001 10.045900 -1.785900 -0.293471 6.456720 -0.000001 -0.000000 1.494900 5.407930 -2.314220 12.994200 -0.242716 4.980390 -89.009400 -3.054360 -72.021600 5.348090 -0.000007 -0.000001 -48.268200 28.115500 -30.127800 24.328600 0.000019 0.000005 5.790370 3.892230 -56.203100 22.291600 -0.000001 0.000005 3.779900 5.608500 -11.863800 12.994500 -0.242716 -4.980390 88.832800 2.121170 -61.168400 -5.348130 -0.000001 -0.000004 -58.199700 33.219400 1.158910 -24.328900 0.000322 -0.000009 5.229290 7.621060 -34.615900 -22.291500 -0.000108 -0.000004 -1.368430 5.548800 -8.649720 -2.192480 -6.469440 -0.000000 -163.880000 -3.516440 12.207200 39.081100 -0.000007 -0.000012 -0.038834 0.059802 32.999000 40.985400 -0.000006 -0.000013 -2.847070 7.386890 -70.511300 11.754300 -0.000000 0.000003 -0.118928 -0.489291 -37.100800 -2.192510 6.469440 -0.000001 -170.899000 17.516600 142.208000 -39.081100 -0.002282 -0.040193 0.083663 -0.093815 40.592200 -40.985400 0.000008 0.000006 6.422870 -9.176580 -52.756300 -11.754300 -0.000006 -0.000006 -0.012108 -0.118767 -21.414900
0.000000 0.000000 0.000000 0.000000 0.000000 -0.000000 133.912000 86.065800 -170.788000 83.384500 8.910750 2.085860 15.735700 0.000005 -0.000001 59.956500 80.041600 -55.949200 8.984550 -0.406207 -0.000000 9.943070 -9.835770 8.882450 16.377300 -0.000001 -0.000001 10.314300 -2.298650 -0.326497 6.456720 -0.000001 -0.000000 1.625210 4.137730 -2.683550 12.994200 -0.242716 4.980390 -88.987900 -3.077300 -71.784400 5.348090 -0.000007 -0.000001 -51.711800 30.642800 -25.991200 24.328600 0.000019 0.000005 6.762560 4.855040 -54.483500 22.291600 -0.000001 0.000005 3.150260 5.610340 -11.980000 12.994500 -0.242716 -4.980390 88.627900 2.557190 -61.771200 -5.348130 -0.000001 -0.000004 -58.290800 35.170300 -1.154060 -24.328900 0.000322 -0.000009 5.837000 8.795850 -33.769400 -22.291500 -0.000108 -0.000004 -1.520230 5.551360 -8.770390 -2.192480 -6.469440 -0.000000 -163.658000 -1.972840 10.712000 39.081100 -0.000007 -0.000012 0.049497 -0.056727 41.104900 40.985400 -0.000006 -0.000013 -1.616780 5.197560 -61.059300 11.754300 -0.000000 0.000003 -0.164583 -0.582762 -41.319200 -2.192510 6.469440 -0.000001 -171.757000 17.640600 145.395000 -39.081100 -0.002282 -0.040193 0.106725 -0.102612 45.236400 -40.985400 0.000008 0.000006 5.989140 -10.161500 -58.220900 -11.754300 -0.000006 -0.000006 -0.007526 -0.084121 -19.998100
0.000000 0.000000 0.000000 0.000000 0.000000 -0.000000 133.294000 86.473600 -166.164000 84.250300 8.879260 3.219050 15.735700 0.000005 -0.000001 62.819100 80.159200 -59.101100 8.984550 -0.406207 -0.000000 10.132400 -8.857820 8.229800 16.377300 -0.000001 -0.000001 10.481100 -3.138580 -0.113226 6.456720 -0.000001 -0.000000 2.181340 2.370570 -2.901270 12.994200 -0.242716 4.980390 -88.888700 -3.341440 -71.591800 5.348090 -0.000007 -0.000001 -55.274600 33.028000 -21.996800 24.328600 0.000019 0.000005 7.974410 6.265960 -52.078600 22.291600 -0.000001 0.000005 1.874560 5.606890 -11.761400 12.994500 -0.242716 -4.980390 88.451500 2.908290 -61.950800 -5.348130 -0.000001 -0.000004 -57.845700 37.206900 -4.151330 -24.328900 0.000322 -0.000009 6.039290 8.995950 -34.087600 -22.291500 -0.000108 -0.000004 -0.992061 5.558100 -9.094060 -2.192480 -6.469440 -0.000000 -164.811000 -0.670339 6.184140 39.081100 -0.000007 -0.000012 0.148376 -0.118311 51.431300 40.985400 -0.000006 -0.000013 -0.611469 1.210540 -50.009900 11.754300 -0.000000 0.000003 -0.044750 -0.278528 -28.032900 -2.192510 6.469440 -0.000001 -173.099000 17.495700 149.431000 -39.081100 -0.002282 -0.040193 0.112109 -0.101315 47.053500 -40.985400 0.000008 0.000006 5.395540 -10.777200 -62.623700 -11.754300 -0.000006 -0.000006 -0.006531 -0.075581 -19.649600
0.000000 0.000000 0.000000 0.000000 0.000000 -0.000000 132.898000 87.196400 -162.141000 84.634600 7.988530 3.645640 15.735700 0.000005 -0.000001 67.095400 80.499100 -63.623000 8.984550 -0.406207 -0.000000 10.029300 -7.281220 7.587380 16.377300 -0.000001 -0.000001 10.453000 -3.752050 0.179602 6.456720 -0.000001 -0.000000 2.661760 0.394803 -2.831490 12.994200 -0.242716 4.980390 -88.829100 -3.405250 -71.011700 5.348090 -0.000007 -0.000001 -58.267600 34.857300 -18.158900 24.328600 0.000019 0.000005 9.290670 7.917080 -49.904100 22.291600 -0.000001 0.000005 0.783656 5.604220 -11.597000 12.994500 -0.242716 -4.980390 88.446300 2.981340 -62.458300 -5.348130 -0.000001 -0.000004 -57.313400 38.090500 -7.810170 -24.328900 0.000322 -0.000009 5.405360 7.774560 -34.977900 -22.291500 -0.000108 -0.000004 -0.310653 5.556280 -9.005440 -2.192480 -6.469440 -0.000000 -165.745000 -1.451480 0.355143 39.081100 -0.000007 -0.000012 0.198699 -0.111911 60.609900 40.985400 -0.000006 -0.000013 2.904150 -2.494390 -43.253700 11.754300 -0.000000 0.000003 -0.006609 -0.076280 -19.681800 -2.192510 6.469440 -0.000001 -173.766000 16.562400 153.535000 -39.081100 -0.002282 -0.040193 0.100168 -0.092272 46.403700 -40.985400 0.000008 0.000006 4.726840 -11.061900 -65.337500 -11.754300 -0.000006 -0.000006 -0.006230 -0.072907 -19.540500
0.000000 0.000000 0.000000 0.000000 0.000000 -0.000000 132.782000 88.097700 -158.423000 84.959700 7.016720 3.935880 15.735700 0.000005 -0.000001 71.331100 80.751600 -68.175600 8.984550 -0.406207 -0.000000 9.964990 -5.823810 6.819310 16.377300 -0.000001 -0.000001 10.614700 -4.150170 0.329521 6.456720 -0.000001 -0.000000 2.886180 -1.550620 -2.506750 12.994200 -0.242716 4.980390 -88.838200 -3.208940 -70.084300 5.348090 -0.000007 -0.000001 -60.637800 36.057000 -14.256800 24.328600 0.000019 0.000005 9.150680 8.378050 -47.869000 22.291600 -0.000001 0.000005 0.265205 5.601580 -11.436500 12.994500 -0.242716 -4.980390 88.546300 2.912080 -63.457200 -5.348130 -0.000001 -0.000004 -56.203700 38.567600 -12.358200 -24.328900 0.000322 -0.000009 4.742060 6.573420 -35.935300 -22.291500 -0.000108 -0.000004 0.021262 5.558500 -9.113890 -2.192480 -6.469440 -0.000000 -166.737000 -3.183450 -5.015860 39.081100 -0.000007 -0.000012 0.193932 -0.080954 67.341400 40.985400 -0.000006 -0.000013 5.098420 -4.408770 -48.257800 11.754300 -0.000000 0.000003 -0.007945 -0.087591 -20.143500 -2.192510 6.469440 -0.000001 -174.514000 15.388400 158.035000 -39.081100 -0.002282 -0.040193 0.084324 -0.083275 44.227100 -40.985400 0.000008 0.000006 4.029610 -11.216800 -67.015000 -11.754300 -0.000006 -0.000006 -0.006364 -0.074104 -19.589300
